<?xml version="1.0" encoding="utf-8"?>
<!-- Generator: Adobe Illustrator 23.0.1, SVG Export Plug-In . SVG Version: 6.00 Build 0)  -->
<svg version="1.1" id="Layer_1" xmlns="http://www.w3.org/2000/svg" xmlns:xlink="http://www.w3.org/1999/xlink" x="0px" y="0px"
	 viewBox="0 0 79 134" style="enable-background:new 0 0 79 134;" xml:space="preserve">
<style type="text/css">
	.st0{fill:#FFDEDE;stroke:$theme-color;stroke-width:2;}
	
		.st1{fill-rule:evenodd;clip-rule:evenodd;fill:#FFDEDE;stroke:url(#Path_6_1_);stroke-width:3;stroke-linecap:round;stroke-linejoin:round;stroke-miterlimit:10;}
	.st2{fill-rule:evenodd;clip-rule:evenodd;fill:url(#SVGID_1_);}
	
		.st3{fill-rule:evenodd;clip-rule:evenodd;fill:#FFDEDE;stroke:url(#Path_7_1_);stroke-width:3;stroke-linecap:round;stroke-linejoin:round;stroke-miterlimit:10;}
	.st4{fill:none;stroke:url(#Path_8_1_);stroke-width:3;stroke-linecap:round;stroke-linejoin:round;stroke-miterlimit:10;}
	.st5{fill-rule:evenodd;clip-rule:evenodd;fill:#FFDEDE;}
 
</style>
<circle id="Oval_Copy_2" class="st0" cx="33.5" cy="77.5" r="4">
<animateTransform attributeName="transform"
                      attributeType="XML"
                      type="translate"
                      values="-10 50;-10 -50;"
                      dur="3s"
                      repeatCount="indefinite"/>
</circle>
<linearGradient id="Path_6_1_" gradientUnits="userSpaceOnUse" x1="490.5" y1="-232.4724" x2="490.5" y2="-281.4724" gradientTransform="matrix(1 0 0 -1 -466.5 -152.9724)">
	<stop  offset="0" style="stop-color:$theme-color"/>
	<stop  offset="1" style="stop-color:#B20838"/>
</linearGradient>
<path id="Path_6" class="st1" d="M13.3,128.5h22.1l11.1-49h-45L13.3,128.5z"/>
<linearGradient id="SVGID_1_" gradientUnits="userSpaceOnUse" x1="49.5" y1="1.5" x2="49.5" y2="132.5">
	<stop  offset="0" style="stop-color:$theme-color"/>
	<stop  offset="1" style="stop-color:#B20838"/>
</linearGradient>
<path class="st2" d="M69.9,120.5H51.5V4c0-1.4-1.1-2.5-2.5-2.5S46.5,2.6,46.5,4v116.5H27.7c-4.9,0-6.2,12-6.2,12h56
	C77.5,132.5,77.5,120.5,69.9,120.5z"/>
<linearGradient id="Path_7_1_" gradientUnits="userSpaceOnUse" x1="475.5" y1="-233.4724" x2="475.5" y2="-265.4724" gradientTransform="matrix(1 0 0 -1 -466.5 -152.9724)">
	<stop  offset="0" style="stop-color:$theme-color"/>
	<stop  offset="1" style="stop-color:#B20838"/>
</linearGradient>
<path id="Path_7" class="st3" d="M1.5,80.5h15v18.2L3.4,112.5L1.5,80.5z"/>
<circle id="Oval" class="st0" cx="5.5" cy="69.5" r="4">
<animateTransform attributeName="transform"
                      attributeType="XML"
                      type="translate"
                      values="0 0;-10 -50;"
                      dur="5s"
                      repeatCount="indefinite"/>
</circle>
<circle id="Oval_Copy" class="st0" cx="21.5" cy="57.5" r="4">
<animateTransform attributeName="transform"
                      attributeType="XML"
                      type="translate"
                      values="0 0;-10 -50;"
                      dur="4s"
                      repeatCount="indefinite"/>
</circle>
<linearGradient id="Path_8_1_" gradientUnits="userSpaceOnUse" x1="509" y1="-240.4724" x2="509" y2="-258.4724" gradientTransform="matrix(1 0 0 -1 -466.5 -152.9724)">
	<stop  offset="0" style="stop-color:$theme-color"/>
	<stop  offset="0.7821" style="stop-color:#B20838"/>
</linearGradient>
<path id="Path_8" class="st4" d="M28.5,87.5c5.7,1,11.2,2.9,16.4,5.5c7.7,4,11.6,6.8,11.6,9.3s-14.2,3.3-14.2,3.3"/>
<path class="st5" d="M27.9,122.2h42.2c0,0,4.6,2.2,5.2,8.7H24C24,130.9,23.9,125.5,27.9,122.2z"/>
</svg>
